<?xml version="1.0" encoding="UTF-8"?>
<svg xmlns="http://www.w3.org/2000/svg" version="1.1" viewBox="0 0 64 64">
  <defs>
    <style>
      .cls-1 {
        fill: #7abf21;
      }

      .cls-2 {
        fill: #6a798c;
      }
    </style>
  </defs>
  <!-- Generator: Adobe Illustrator 28.6.0, SVG Export Plug-In . SVG Version: 1.2.0 Build 709)  -->
  <g>
    <g id="katman_1">
      <g>
        <path class="cls-1" d="M33.3,44.5c-4.1,0-7.5,3.3-7.5,7.5s3.3,7.5,7.5,7.5,7.5-3.3,7.5-7.5-3.3-7.5-7.5-7.5ZM33.3,55.3c-1.8,0-3.3-1.5-3.3-3.3s1.5-3.3,3.3-3.3,3.3,1.5,3.3,3.3-1.5,3.3-3.3,3.3Z"/>
        <path class="cls-2" d="M52,20.6h-1.3c-2-9.5-8.9-16-18.7-16S15.3,11.1,13.3,20.6h-1.3c-4,0-7.3,3.3-7.3,7.3v2.7c0,4,3.3,7.3,7.3,7.3h2.7c1.1,0,2-.9,2-2v-9.3c0-10.6,6-18,15.3-18s15.3,7.4,15.3,18v8c0,7.3-2.1,11.1-7.6,13.6.6,1.1,1,2.4,1,3.7s0,.1,0,.2c6.1-2.1,10.2-7.8,10.4-14.2h.8c4,0,7.3-3.3,7.3-7.3v-2.7c0-4-3.3-7.3-7.3-7.3ZM12.7,33.9h-.7c-1.8,0-3.3-1.5-3.3-3.3v-2.7c0-1.8,1.5-3.3,3.3-3.3h.7v9.3ZM55.3,30.6c0,1.8-1.5,3.3-3.3,3.3h-.7v-9.3h.7c1.8,0,3.3,1.5,3.3,3.3v2.7Z"/>
      </g>
    </g>
  </g>
</svg>