<?xml version="1.0" encoding="UTF-8"?>
<svg xmlns="http://www.w3.org/2000/svg" version="1.1" viewBox="0 0 64 64">
  <defs>
    <style>
      .cls-1 {
        fill: #7abf21;
      }

      .cls-2 {
        fill: #6a798c;
      }
    </style>
  </defs>
  <!-- Generator: Adobe Illustrator 28.6.0, SVG Export Plug-In . SVG Version: 1.2.0 Build 709)  -->
  <g>
    <g id="katman_1">
      <g id="Q3_icons">
        <g>
          <path class="cls-2" d="M61.3,30.3c-.8-16.2-14.7-28.6-30.8-27.8C15.8,3.3,3.9,14.8,2.8,29.5h5.3c1.5-13.2,13.4-22.6,26.5-21.2s22.6,13.4,21.2,26.5c-1.3,11.1-10,19.9-21.2,21.2v5.3c15.8-1.4,27.7-15.2,26.7-31.1Z"/>
          <path class="cls-2" d="M32,16.2c-1.5,0-2.7,1.2-2.7,2.7v14.8l14.7,8.8c.4.3.9.4,1.3.4.9,0,1.8-.5,2.3-1.3.8-1.2.4-2.7-.8-3.5,0,0-.1,0-.2,0l-12-7.2v-11.9c0-1.5-1.2-2.7-2.7-2.7Z"/>
        </g>
      </g>
      <path class="cls-1" d="M15,48h-2.9c-3,0-4.5,0-5.1-1-.6-1,0-2.3,1.3-5l5.8-12.4c.8-1.7,1.2-2.6,1.6-2.5.4,0,.4,1,.4,2.9v9.3c0,.5,0,.7.2.9.2.2.4.2.9.2h2.9c3,0,4.5,0,5.1,1,.6,1,0,2.3-1.3,5l-5.8,12.4c-.8,1.7-1.2,2.6-1.6,2.5-.4,0-.4-1-.4-2.9v-9.3c0-.5,0-.7-.2-.9-.2-.2-.4-.2-.9-.2Z"/>
    </g>
  </g>
</svg>