<?xml version="1.0" encoding="UTF-8"?>
<svg xmlns="http://www.w3.org/2000/svg" version="1.1" viewBox="0 0 64 64">
  <defs>
    <style>
      .cls-1 {
        stroke: #7abf21;
      }

      .cls-1, .cls-2 {
        fill: none;
        stroke-linecap: round;
        stroke-linejoin: round;
        stroke-width: 4px;
      }

      .cls-2 {
        isolation: isolate;
        stroke: #6a798c;
      }
    </style>
  </defs>
  <!-- Generator: Adobe Illustrator 28.6.0, SVG Export Plug-In . SVG Version: 1.2.0 Build 709)  -->
  <g>
    <g id="katman_1">
      <g id="SVGRepo_iconCarrier">
        <path class="cls-2" d="M58.7,29.6v-11.2c0-9.3-3.7-13.1-13.1-13.1h-11.2c-9.3,0-13.1,3.7-13.1,13.1v2.9h8.3c9.3,0,13.1,3.7,13.1,13.1v8.3h2.9c9.3,0,13.1-3.7,13.1-13.1Z"/>
        <path class="cls-1" d="M42.7,45.6v-11.2c0-9.3-3.7-13.1-13.1-13.1h-11.2c-9.3,0-13.1,3.7-13.1,13.1v11.2c0,9.3,3.7,13.1,13.1,13.1h11.2c9.3,0,13.1-3.7,13.1-13.1Z"/>
        <path class="cls-1" d="M16.2,40l5.2,5.2,10.4-10.4"/>
      </g>
    </g>
  </g>
</svg>