<?xml version="1.0" encoding="UTF-8"?>
<svg xmlns="http://www.w3.org/2000/svg" version="1.1" viewBox="0 0 64 64">
  <defs>
    <style>
      .cls-1 {
        fill: #7abf21;
      }

      .cls-2 {
        fill: #6a798c;
      }
    </style>
  </defs>
  <!-- Generator: Adobe Illustrator 28.6.0, SVG Export Plug-In . SVG Version: 1.2.0 Build 709)  -->
  <g>
    <g id="katman_1">
      <path class="cls-2" d="M20.4,32.5c-2.5,0-4.7-1.1-6.5-2.7-1.6-1.6-2.6-3.9-2.6-6.5s1-4.7,2.6-6.4c1.8-1.6,3.9-2.7,6.5-2.7s4.8,1.1,6.5,2.7h0c1.6,1.6,2.6,3.8,2.6,6.4s-1,4.8-2.6,6.5h0c-1.6,1.6-3.9,2.7-6.5,2.7ZM16.5,27.3c1,1,2.4,1.6,3.9,1.6s3-.7,4.1-1.6h0c1-1.1,1.6-2.4,1.6-4.1s-.7-3-1.6-3.9h0c-1.1-1-2.5-1.6-4.1-1.6s-3,.7-3.9,1.6-1.6,2.4-1.6,3.9.7,3,1.6,4.1Z"/>
      <path class="cls-2" d="M20.4,49.8H5.8c-1,0-1.8-.8-1.8-1.8v-5c0-4.2,4.5-6.8,10.1-7.8,2.1-.3,4.3-.5,6.4-.5s4.4.2,6.4.5c5.7,1,10.2,3.6,10.2,7.8v5c0,1-.9,1.8-1.8,1.8h-14.8ZM7.5,46.3h26v-3.3c0-2.1-3.2-3.6-7.3-4.4-1.8-.3-3.7-.4-5.7-.4s-3.9.1-5.7.4c-4.1.8-7.2,2.3-7.2,4.4,0,0,0,3.3,0,3.3Z"/>
      <path class="cls-1" d="M43.6,32.5c-2.5,0-4.8-1.1-6.5-2.7h0c-1.6-1.6-2.6-3.9-2.6-6.5s1-4.7,2.6-6.4h0c1.6-1.6,3.9-2.7,6.5-2.7s4.8,1.1,6.5,2.7h0c1.6,1.6,2.6,3.8,2.6,6.4s-1,4.8-2.6,6.5h0c-1.6,1.6-3.9,2.7-6.5,2.7ZM39.6,27.3c1,1,2.4,1.6,3.9,1.6s3-.7,3.9-1.6h0c1.1-1.1,1.6-2.4,1.6-4.1s-.5-3-1.6-3.9h0c-1-1-2.4-1.6-3.9-1.6s-3,.7-3.9,1.6h0c-1.1,1-1.6,2.4-1.6,3.9s.5,3,1.6,4.1h0Z"/>
      <path class="cls-1" d="M43.6,49.8h-14.7c-1,0-1.8-.8-1.8-1.8v-5c0-4.2,4.4-6.8,10.1-7.8,2.1-.3,4.3-.5,6.4-.5s4.3.2,6.4.5c5.7,1,10.1,3.6,10.1,7.8v5c0,1-.8,1.8-1.8,1.8h-14.7ZM30.6,46.3h25.9v-3.3c0-2.1-3.2-3.6-7.2-4.4-1.8-.3-3.7-.4-5.7-.4s-3.9.1-5.7.4c-4.1.8-7.2,2.3-7.2,4.4,0,0,0,3.3,0,3.3Z"/>
    </g>
  </g>
</svg>