<?xml version="1.0" encoding="UTF-8"?>
<svg xmlns="http://www.w3.org/2000/svg" version="1.1" viewBox="0 0 64 64">
  <defs>
    <style>
      .cls-1 {
        fill: #6a798c;
      }

      .cls-1, .cls-2 {
        fill-rule: evenodd;
      }

      .cls-2 {
        fill: #7abf21;
      }
    </style>
  </defs>
  <!-- Generator: Adobe Illustrator 28.6.0, SVG Export Plug-In . SVG Version: 1.2.0 Build 709)  -->
  <g>
    <g id="katman_1">
      <g id="SVGRepo_iconCarrier">
        <g id="layer1">
          <path id="path5345" class="cls-1" d="M20,35.4c-1.1,0-2,.9-2,2v20.6c0,1.1.9,2,2,2,.3,0,.6,0,.9-.2l11.1-5.6,11.1,5.6c1,.5,2.2,0,2.7-.9.1-.3.2-.6.2-.9v-20.6c0-1.1-.9-2-2-2s-2,.9-2,2v17.4l-9.1-4.6c-.6-.3-1.2-.3-1.8,0l-9.1,4.6v-17.4c0-1.1-.9-2-2-2Z"/>
          <path id="circle5330" class="cls-1" d="M32,4c-11,0-20,9-20,20,0,11,9,20,20,20s20-9,20-20c0-11-9-20-20-20ZM32,8c8.9,0,16,7.1,16,16s-7.1,16-16,16-16-7.1-16-16c0-8.9,7.1-16,16-16Z"/>
          <path id="path5332" class="cls-2" d="M24.8,36.2c.5.1,1,0,1.5-.2l5.8-3.1,5.8,3.1c1,.5,2.2.2,2.7-.8.2-.4.3-.9.2-1.3l-1.2-6.4,4.7-4.5c.8-.8.8-2,0-2.8-.3-.3-.7-.5-1.2-.6l-6.5-.9-2.8-5.9c-.5-1-1.7-1.4-2.7-.9-.4.2-.7.5-.9.9l-2.8,5.9-6.5.9c-1.1.1-1.9,1.2-1.7,2.2,0,.4.3.9.6,1.2l4.7,4.5-1.2,6.4c-.2,1,.5,2,1.5,2.3ZM36,30.6l-3-1.6c-.6-.3-1.3-.3-1.9,0l-3,1.6.6-3.4c.1-.7-.1-1.3-.6-1.8l-2.5-2.4,3.4-.5c.7,0,1.2-.5,1.5-1.1l1.5-3.1,1.5,3.1c.3.6.9,1,1.5,1.1l3.4.5-2.5,2.4c-.5.5-.7,1.1-.6,1.8l.6,3.4Z"/>
        </g>
      </g>
    </g>
  </g>
</svg>