<?xml version="1.0" encoding="UTF-8"?>
<svg xmlns="http://www.w3.org/2000/svg" version="1.1" viewBox="0 0 64 64">
  <defs>
    <style>
      .cls-1 {
        fill: #7abf21;
      }

      .cls-2 {
        fill: #6a798c;
      }
    </style>
  </defs>
  <!-- Generator: Adobe Illustrator 28.6.0, SVG Export Plug-In . SVG Version: 1.2.0 Build 709)  -->
  <g>
    <g id="katman_1">
      <g id="icons_Q2">
        <path class="cls-2" d="M57,36.9c-1.5-1.2-3.4-1.7-5.3-1.5l-13.2,2.4c0-1.7-.7-3.3-1.9-4.4l-9.5-9.5H7.4c-1.5,0-2.7,1.2-2.7,2.7s1.2,2.7,2.7,2.7h17.6l7.9,7.9c.4.4.4,1.2,0,1.6s-1.2.4-1.6,0l-4.7-4.7c-1.2-.9-2.8-.6-3.7.5-.7.9-.7,2.3,0,3.2l4.7,4.7c1.2,1.2,2.8,1.9,4.5,1.9s1.6,0,2.4-.4h0l18.1-3.2c.4,0,.8,0,1.1.3.3.2.4.6.4.9,0,.6-.4,1.2-1.1,1.3l-24.8,4.5-14.5-11.9h-6.3c-1.5,0-2.7,1.2-2.7,2.7s1.2,2.7,2.7,2.7h4.4l14.8,12.1,27.3-4.9c3.6-.7,6-4.2,5.3-7.8-.3-1.5-1.1-2.8-2.2-3.8Z"/>
      </g>
      <path class="cls-1" d="M38.9,31.6c.6.6,1.3,1,2.2,1h0c.8,0,1.7-.3,2.3-1l15-15.8c1.1-1.2,1.1-3.2-.2-4.3s-3.2-1.1-4.4.1l-12.7,13.3-4-4.3c-1.1-1.3-3.1-1.4-4.4-.2-1.3,1.1-1.4,3.1-.2,4.4l6.2,6.8h.1Z"/>
    </g>
  </g>
</svg>