<?xml version="1.0" encoding="UTF-8"?>
<svg id="katman_1" xmlns="http://www.w3.org/2000/svg" viewBox="0 0 300 39">
  <defs>
    <style>
      .cls-1 {
        fill: #aaa;
      }

      .cls-2 {
        fill: #fff;
      }
    </style>
  </defs>
  <g id="SvgjsG96717">
    <g id="SvgjsG96718">
      <path class="cls-2" d="M20.29,13.08c-.58-1.78-1.66-3.3-3.26-4.55-.76-.61-1.78-1.08-3.05-1.39-1.28-.32-2.49-.48-3.64-.48-3.24,0-6.26.05-9.09.14l-.25.26v24.76l.25.26c4.27.1,7.14.15,8.61.15s2.84-.15,4.12-.46c1.27-.31,2.29-.77,3.05-1.38,1.62-1.25,2.71-2.77,3.28-4.56.56-1.79.84-3.92.84-6.39s-.29-4.59-.86-6.36ZM7.47,27.81c-.56,0-.86.01-.88.04V11.03l3.75.04c3.36,0,5.04,2.79,5.04,8.39s-1.68,8.39-5.04,8.39l-2.87-.04ZM34.7,26.63h5.22c.72,0,1.24-.01,1.59-.03l.77,2.68c.32,1.17.72,1.98,1.22,2.41.49.43,1.3.64,2.43.64s2.1-.23,2.9-.7l-7.94-24.72c-.84-.17-1.9-.26-3.21-.26s-2.39.07-3.27.22l-8.17,24.68.22.29c.66.27,1.54.41,2.61.41s1.9-.07,2.46-.22l1.62-5.44c.34.02.86.03,1.55.03ZM34.44,22.22l1.03-3.39c.96-3.31,1.55-5.57,1.77-6.77h.19l2.79,10.15c-.17,0-.42,0-.74-.02-.32-.01-.54-.02-.66-.02h-2.83l-1.54.04ZM62.87,11.51h.04l2.28.04h1.29c1.03,0,1.78-.19,2.24-.57.46-.38.7-1,.7-1.86s-.1-1.61-.29-2.24h-18.03c-.12.71-.18,1.49-.18,2.33s.06,1.63.18,2.33h3.9l2.28-.04h.04l-.04,2.72v17.77c.76.15,1.7.22,2.81.22s2.06-.07,2.82-.22V14.23l-.04-2.72ZM79.68,26.63h5.22c.71,0,1.24-.01,1.58-.03l.77,2.68c.32,1.17.72,1.98,1.21,2.41.49.43,1.3.64,2.43.64s2.1-.23,2.9-.7l-7.95-24.72c-.83-.17-1.9-.26-3.2-.26s-2.39.07-3.27.22l-8.17,24.68.22.29c.66.27,1.53.41,2.61.41s1.9-.07,2.46-.22l1.62-5.44c.34.02.86.03,1.54.03ZM79.42,22.22l1.03-3.39c.95-3.31,1.55-5.57,1.77-6.77h.18l2.8,10.15c-.17,0-.42,0-.74-.02-.32-.01-.54-.02-.66-.02h-2.83l-1.55.04Z"/>
    </g>
    <g id="SvgjsG96719">
      <path class="cls-1" d="M116.77,16.76c.74.19,1.44.29,2.13.29,2.13,0,3.2-1.03,3.2-3.09s-.86-3.96-2.59-5.41c-1.73-1.45-4.06-2.17-7.01-2.17s-5.41,1.1-7.41,3.32c-2,2.21-3,5.5-3,9.89,0,2.77.46,5.21,1.36,7.32.49,1.15,1.11,2.13,1.86,2.96.75.82,1.71,1.48,2.87,1.99,1.17.5,2.6.75,4.3.75s3.46-.37,5.24-1.12c1.79-.75,3.24-1.68,4.34-2.78-.12-.61-.45-1.27-.97-1.97s-1.07-1.24-1.64-1.64c-2.38,1.74-4.43,2.61-6.16,2.61s-3.04-.68-3.95-2.06-1.36-3.45-1.36-6.24.37-4.91,1.1-6.38c.74-1.48,1.89-2.21,3.46-2.21s2.67.54,3.29,1.62c.63,1.08.94,2.39.94,3.94v.37ZM135.56,26.69h5.22c.71,0,1.24-.01,1.58-.03l.77,2.68c.32,1.17.72,1.98,1.21,2.41.49.43,1.3.64,2.43.64s2.1-.23,2.9-.7l-7.95-24.72c-.83-.17-1.9-.26-3.2-.26s-2.39.07-3.27.22l-8.17,24.68.23.29c.66.27,1.53.41,2.61.41s1.9-.07,2.46-.22l1.62-5.44c.34.02.86.03,1.54.03ZM135.3,22.28l1.03-3.39c.95-3.31,1.54-5.57,1.77-6.77h.18l2.8,10.15c-.17,0-.42,0-.74-.02-.32-.01-.54-.02-.66-.02h-2.83l-1.55.04ZM176.14,6.72h-1.84c-1.1,0-1.9.26-2.39.77-.49.52-.74,1.39-.74,2.61v5.15c0,3.7.14,7.24.44,10.63l-.15.04-2.32-5.56-5.96-13.42c-.98-.15-2.1-.22-3.37-.22s-2.33.11-3.22.33v25.01c.72.15,1.58.22,2.59.22s1.9-.07,2.63-.22v-7.91c0-3.66-.15-7.22-.44-10.71l.14-.03c.37,1,1.07,2.73,2.1,5.19l6.1,13.46c.98.15,2.1.22,3.37.22s2.36-.11,3.29-.33V6.94l-.25-.22ZM205.34,6.72h-1.84c-1.11,0-1.9.26-2.39.77-.49.52-.74,1.39-.74,2.61v5.15c0,3.7.15,7.24.44,10.63l-.15.04-2.32-5.56-5.96-13.42c-.98-.15-2.1-.22-3.37-.22s-2.33.11-3.22.33v25.01c.72.15,1.58.22,2.59.22s1.9-.07,2.63-.22v-7.91c0-3.66-.15-7.22-.44-10.71l.15-.03c.37,1,1.06,2.73,2.1,5.19l6.1,13.46c.98.15,2.1.22,3.37.22s2.36-.11,3.3-.33V6.94l-.26-.22ZM215.09,32.06c.74.15,1.67.22,2.81.22s2.08-.07,2.82-.22V6.94c-.74-.15-1.68-.22-2.82-.22s-2.08.07-2.81.22v25.12ZM230.51,6.86l-.26.26v24.76l.26.26c4.12.1,7.1.15,8.93.15,2.9,0,5.14-.63,6.73-1.88,1.59-1.25,2.39-3.1,2.39-5.55,0-1.44-.43-2.77-1.29-3.97-.86-1.2-1.9-2-3.13-2.39.96-.42,1.74-1.1,2.34-2.03.6-.94.9-1.95.9-3.05,0-2.23-.75-3.91-2.26-5.02-1.51-1.12-3.6-1.67-6.28-1.67-1.69,0-4.48.05-8.35.14ZM239,20.88c1.4,0,2.41.37,3.02,1.12.61.75.92,1.62.92,2.61s-.29,1.85-.88,2.57c-.59.73-1.57,1.09-2.96,1.09s-2.5,0-3.33.03v-7.43h3.24ZM235.76,10.72c.66.03,1.61.04,2.83.04,2.21,0,3.31,1.01,3.31,3.02,0,.86-.25,1.59-.75,2.19-.5.6-1.35.9-2.56.9h-2.83v-6.15ZM262.43,26.69h5.22c.71,0,1.24-.01,1.58-.03l.77,2.68c.32,1.17.72,1.98,1.21,2.41.49.43,1.3.64,2.43.64s2.1-.23,2.91-.7l-7.95-24.72c-.83-.17-1.9-.26-3.2-.26s-2.39.07-3.28.22l-8.17,24.68.22.29c.66.27,1.54.41,2.61.41s1.9-.07,2.46-.22l1.62-5.44c.34.02.86.03,1.55.03ZM262.18,22.28l1.03-3.39c.95-3.31,1.54-5.57,1.76-6.77h.19l2.79,10.15c-.17,0-.41,0-.74-.02-.32-.01-.54-.02-.66-.02h-2.84l-1.54.04ZM292.49,27.31c-1.05,0-2.19.04-3.42.11V10.25c0-2.35-1.1-3.53-3.32-3.53h-2.06l-.26.22v21.92c0,1.03.3,1.84.88,2.43.59.59,1.39.88,2.39.88h8.46c2.16,0,3.39-.92,3.68-2.76.1-.59.15-1.28.15-2.1h-6.51Z"/>
    </g>
  </g>
</svg>