<?xml version="1.0" encoding="UTF-8"?>
<svg xmlns="http://www.w3.org/2000/svg" version="1.1" viewBox="0 0 300 39">
  <defs>
    <style>
      .cls-1 {
        fill: #7491e7;
      }

      .cls-2 {
        fill: #2047bc;
      }
    </style>
  </defs>
  <!-- Generator: Adobe Illustrator 28.6.0, SVG Export Plug-In . SVG Version: 1.2.0 Build 709)  -->
  <g>
    <g id="katman_1">
      <g id="SvgjsG96717">
        <g id="SvgjsG96718">
          <path class="cls-2" d="M20.3,13.1c-.6-1.8-1.7-3.3-3.3-4.5-.8-.6-1.8-1.1-3.1-1.4-1.3-.3-2.5-.5-3.6-.5-3.2,0-6.3,0-9.1.1l-.3.3v24.8l.3.3c4.3.1,7.1.1,8.6.1s2.8-.2,4.1-.5c1.3-.3,2.3-.8,3.1-1.4,1.6-1.3,2.7-2.8,3.3-4.6.6-1.8.8-3.9.8-6.4s-.3-4.6-.9-6.4ZM7.5,27.8c-.6,0-.9,0-.9,0V11h3.8c3.4,0,5,2.8,5,8.4s-1.7,8.4-5,8.4h-2.9ZM34.7,26.6h5.2c.7,0,1.2,0,1.6,0l.8,2.7c.3,1.2.7,2,1.2,2.4.5.4,1.3.6,2.4.6s2.1-.2,2.9-.7l-7.9-24.7c-.8-.2-1.9-.3-3.2-.3s-2.4,0-3.3.2l-8.2,24.7.2.3c.7.3,1.5.4,2.6.4s1.9,0,2.5-.2l1.6-5.4c.3,0,.9,0,1.5,0ZM34.4,22.2l1-3.4c1-3.3,1.5-5.6,1.8-6.8h.2l2.8,10.2c-.2,0-.4,0-.7,0-.3,0-.5,0-.7,0h-4.4ZM62.9,11.5h2.3s1.3,0,1.3,0c1,0,1.8-.2,2.2-.6.5-.4.7-1,.7-1.9s0-1.6-.3-2.2h-18c-.1.7-.2,1.5-.2,2.3s0,1.6.2,2.3h6.2s0,0,0,0v2.7s0,17.8,0,17.8c.8.1,1.7.2,2.8.2s2.1,0,2.8-.2V11.5ZM79.7,26.6h5.2c.7,0,1.2,0,1.6,0l.8,2.7c.3,1.2.7,2,1.2,2.4.5.4,1.3.6,2.4.6s2.1-.2,2.9-.7l-7.9-24.7c-.8-.2-1.9-.3-3.2-.3s-2.4,0-3.3.2l-8.2,24.7.2.3c.7.3,1.5.4,2.6.4s1.9,0,2.5-.2l1.6-5.4c.3,0,.9,0,1.5,0ZM79.4,22.2l1-3.4c1-3.3,1.5-5.6,1.8-6.8h.2l2.8,10.2c-.2,0-.4,0-.7,0-.3,0-.5,0-.7,0h-4.4Z"/>
        </g>
        <g id="SvgjsG96719">
          <path class="cls-1" d="M116.8,16.8c.7.2,1.4.3,2.1.3,2.1,0,3.2-1,3.2-3.1s-.9-4-2.6-5.4c-1.7-1.5-4.1-2.2-7-2.2s-5.4,1.1-7.4,3.3c-2,2.2-3,5.5-3,9.9s.5,5.2,1.4,7.3c.5,1.1,1.1,2.1,1.9,3,.7.8,1.7,1.5,2.9,2,1.2.5,2.6.8,4.3.8s3.5-.4,5.2-1.1c1.8-.7,3.2-1.7,4.3-2.8-.1-.6-.4-1.3-1-2s-1.1-1.2-1.6-1.6c-2.4,1.7-4.4,2.6-6.2,2.6s-3-.7-4-2.1-1.4-3.5-1.4-6.2.4-4.9,1.1-6.4c.7-1.5,1.9-2.2,3.5-2.2s2.7.5,3.3,1.6c.6,1.1.9,2.4.9,3.9v.4ZM135.6,26.7h5.2c.7,0,1.2,0,1.6,0l.8,2.7c.3,1.2.7,2,1.2,2.4.5.4,1.3.6,2.4.6s2.1-.2,2.9-.7l-7.9-24.7c-.8-.2-1.9-.3-3.2-.3s-2.4,0-3.3.2l-8.2,24.7.2.3c.7.3,1.5.4,2.6.4s1.9,0,2.5-.2l1.6-5.4c.3,0,.9,0,1.5,0ZM135.3,22.3l1-3.4c1-3.3,1.5-5.6,1.8-6.8h.2l2.8,10.2c-.2,0-.4,0-.7,0-.3,0-.5,0-.7,0h-4.4ZM176.1,6.7h-1.8c-1.1,0-1.9.3-2.4.8-.5.5-.7,1.4-.7,2.6v5.2c0,3.7.1,7.2.4,10.6h-.1s-2.3-5.5-2.3-5.5l-6-13.4c-1-.1-2.1-.2-3.4-.2s-2.3.1-3.2.3v25c.7.1,1.6.2,2.6.2s1.9,0,2.6-.2v-7.9c0-3.7-.1-7.2-.4-10.7h.1c.4,1,1.1,2.7,2.1,5.2l6.1,13.5c1,.1,2.1.2,3.4.2s2.4-.1,3.3-.3V6.9l-.3-.2ZM205.3,6.7h-1.8c-1.1,0-1.9.3-2.4.8-.5.5-.7,1.4-.7,2.6v5.2c0,3.7.1,7.2.4,10.6h-.1s-2.3-5.5-2.3-5.5l-6-13.4c-1-.1-2.1-.2-3.4-.2s-2.3.1-3.2.3v25c.7.1,1.6.2,2.6.2s1.9,0,2.6-.2v-7.9c0-3.7-.1-7.2-.4-10.7h.1c.4,1,1.1,2.7,2.1,5.2l6.1,13.5c1,.1,2.1.2,3.4.2s2.4-.1,3.3-.3V6.9l-.3-.2ZM215.1,32.1c.7.1,1.7.2,2.8.2s2.1,0,2.8-.2V6.9c-.7-.1-1.7-.2-2.8-.2s-2.1,0-2.8.2v25.1ZM230.5,6.9l-.3.3v24.8l.3.3c4.1.1,7.1.1,8.9.1,2.9,0,5.1-.6,6.7-1.9,1.6-1.3,2.4-3.1,2.4-5.6s-.4-2.8-1.3-4c-.9-1.2-1.9-2-3.1-2.4,1-.4,1.7-1.1,2.3-2,.6-.9.9-1.9.9-3.1,0-2.2-.8-3.9-2.3-5-1.5-1.1-3.6-1.7-6.3-1.7s-4.5,0-8.3.1ZM239,20.9c1.4,0,2.4.4,3,1.1.6.7.9,1.6.9,2.6s-.3,1.9-.9,2.6c-.6.7-1.6,1.1-3,1.1s-2.5,0-3.3,0v-7.4h3.2ZM235.8,10.7c.7,0,1.6,0,2.8,0,2.2,0,3.3,1,3.3,3s-.2,1.6-.7,2.2c-.5.6-1.4.9-2.6.9h-2.8v-6.1ZM262.4,26.7h5.2c.7,0,1.2,0,1.6,0l.8,2.7c.3,1.2.7,2,1.2,2.4.5.4,1.3.6,2.4.6s2.1-.2,2.9-.7l-7.9-24.7c-.8-.2-1.9-.3-3.2-.3s-2.4,0-3.3.2l-8.2,24.7.2.3c.7.3,1.5.4,2.6.4s1.9,0,2.5-.2l1.6-5.4c.3,0,.9,0,1.5,0ZM262.2,22.3l1-3.4c1-3.3,1.5-5.6,1.8-6.8h.2l2.8,10.2c-.2,0-.4,0-.7,0-.3,0-.5,0-.7,0h-4.4ZM292.5,27.3c-1.1,0-2.2,0-3.4.1V10.2c0-2.4-1.1-3.5-3.3-3.5h-2.1l-.3.2v21.9c0,1,.3,1.8.9,2.4.6.6,1.4.9,2.4.9h8.5c2.2,0,3.4-.9,3.7-2.8,0-.6.1-1.3.1-2.1h-6.5Z"/>
        </g>
      </g>
    </g>
  </g>
</svg>